<mxfile host="app.diagrams.net" modified="2023-12-27T05:44:50.375Z" agent="Mozilla/5.0 (X11; Linux x86_64) AppleWebKit/537.36 (KHTML, like Gecko) Chrome/120.0.0.0 Safari/537.36 Edg/120.0.0.0" version="22.1.12" etag="ZbXmeTMmly4Chal4Zm2P" type="github">
  <diagram name="Page-1" id="T4FgAUHTk9NcwUvAQjZD">
    <mxGraphModel>
      <root>
        <mxCell id="0" />
        <mxCell id="1" parent="0" />
      </root>
    </mxGraphModel>
  </diagram>
</mxfile>
